<?xml version="1.0" encoding="UTF-8" standalone="no"?>
<!-- Created with Inkscape (http://www.inkscape.org/) -->

<svg
   width="625.25928mm"
   height="625.25928mm"
   viewBox="0 0 625.25928 625.25928"
   version="1.1"
   id="svg5"
   inkscape:version="1.3 (0e150ed6c4, 2023-07-21)"
   sodipodi:docname="modos.svg"
   inkscape:export-filename="D:\Users\Tona\Downloads\Cursos\Historia\Modos otro.png"
   inkscape:export-xdpi="96"
   inkscape:export-ydpi="96"
   xmlns:inkscape="http://www.inkscape.org/namespaces/inkscape"
   xmlns:sodipodi="http://sodipodi.sourceforge.net/DTD/sodipodi-0.dtd"
   xmlns="http://www.w3.org/2000/svg"
   xmlns:svg="http://www.w3.org/2000/svg">
  <sodipodi:namedview
     id="namedview7"
     pagecolor="#ffffff"
     bordercolor="#666666"
     borderopacity="1.0"
     inkscape:pageshadow="2"
     inkscape:pageopacity="0.0"
     inkscape:pagecheckerboard="0"
     inkscape:document-units="mm"
     showgrid="false"
     inkscape:zoom="0.14928528"
     inkscape:cx="1349.7647"
     inkscape:cy="1329.6689"
     inkscape:window-width="1366"
     inkscape:window-height="705"
     inkscape:window-x="-8"
     inkscape:window-y="-8"
     inkscape:window-maximized="1"
     inkscape:current-layer="layer1"
     inkscape:snap-bbox="true"
     inkscape:showpageshadow="2"
     inkscape:deskcolor="#d1d1d1"
     showguides="false" />
  <defs
     id="defs2" />
  <g
     inkscape:label="Capa 1"
     inkscape:groupmode="layer"
     id="layer1"
     transform="translate(207.62964,106.32508)">
    <circle
       style="fill:#f9f9f9;stroke:#000000;stroke-width:0.0700042;stroke-opacity:0.0243902;-inkscape-stroke:none;paint-order:stroke fill markers;stop-color:#000000"
       id="path31"
       cx="105"
       cy="28.800423"
       r="11.077085" />
    <circle
       style="fill:#f9f9f9;stroke:#000000;stroke-width:0.0700042;stroke-opacity:0.0243902;-inkscape-stroke:none;paint-order:stroke fill markers;stop-color:#000000"
       id="path33"
       cx="105"
       cy="68.23484"
       r="38.105175" />
    <circle
       style="fill:#aa0000;stroke:none;stroke-width:0.514517;stroke-opacity:0.0243902;-inkscape-stroke:none;paint-order:stroke fill markers;stop-color:#000000"
       id="path35"
       cx="172.34297"
       cy="154.54602"
       r="312.62964"
       transform="rotate(21.142197)" />
    <circle
       style="fill:#ff0000;stroke:none;stroke-width:0.444512;stroke-opacity:0.0243902;-inkscape-stroke:none;paint-order:stroke fill markers;stop-color:#000000"
       id="path35-8"
       cx="-111.1398"
       cy="-210.2944"
       r="270.09363"
       transform="rotate(-178.33966)" />
    <circle
       style="fill:#ffff00;fill-opacity:1;stroke:none;stroke-width:0.0933111;stroke-opacity:0.0121951;-inkscape-stroke:none;paint-order:stroke fill markers;stop-color:#000000"
       id="path183"
       cx="-202.95024"
       cy="105.74282"
       r="230.92558"
       transform="rotate(-89.79049)" />
    <circle
       style="fill:#1a1a1a;stroke:none;stroke-width:0.0687929;stroke-opacity:0.0121951;-inkscape-stroke:none;paint-order:stroke fill markers;stop-color:#000000"
       id="path3296"
       cx="212.2982"
       cy="-105.98817"
       r="201.33711"
       transform="rotate(90.266384)" />
    <circle
       style="fill:#808000;stroke:none;stroke-width:0.0595672;stroke-opacity:0.0121951;-inkscape-stroke:none;paint-order:stroke fill markers;stop-color:#000000"
       id="path3422"
       cx="105"
       cy="219.76939"
       r="165.89043" />
    <ellipse
       style="fill:#000000;stroke:none;stroke-width:0.0617337;stroke-opacity:0.0121951;-inkscape-stroke:none;paint-order:stroke fill markers;stop-color:#000000"
       id="path3548"
       cx="119.65028"
       cy="-223.8936"
       transform="rotate(127.44752)"
       rx="148.16701"
       ry="148.16708" />
    <circle
       style="fill:#916f6f;stroke:none;stroke-width:0.0743254;stroke-opacity:0.0121951;-inkscape-stroke:none;paint-order:stroke fill markers;stop-color:#000000"
       id="path3652"
       cx="105"
       cy="225.97002"
       r="121.93655" />
    <path
       style="font-stretch:condensed;font-size:36.2857px;line-height:1.25;font-family:Arial;-inkscape-font-specification:'Arial, Condensed';text-align:center;text-anchor:middle;fill:#00ff00;stroke-width:0.264583"
       d="m 125.66472,320.29422 -2.96473,-0.017 q -0.3581,-4.46152 1.27784,-7.20904 1.62405,-2.72546 4.84843,-3.69279 2.83405,-0.85023 5.26592,-0.0815 2.41999,0.79081 4.62615,3.45855 2.1892,2.67283 3.43655,6.83057 1.23207,4.10684 0.80953,7.32274 -0.43443,3.23796 -2.19086,5.33721 -1.75134,2.11622 -4.44963,2.92572 -2.95285,0.88587 -5.62909,-0.3275 -2.67115,-1.1964 -4.58882,-4.50563 l 2.41827,-1.55789 q 2.91555,4.78564 7.00541,3.55866 2.03645,-0.61095 3.21419,-2.11114 1.18283,-1.48322 1.4204,-3.9592 0.22061,-2.4709 -0.79255,-5.84801 -1.53245,-5.10809 -4.10009,-7.13095 -2.56254,-2.00589 -5.54933,-1.10984 -2.20615,0.66186 -3.33298,2.70171 -1.1387,2.06191 -0.72461,5.41527 z m -7.74925,5.26117 q 0.19359,6.64129 -2.62482,10.28621 -2.81789,3.66262 -7.17458,3.78961 -2.81591,0.0821 -5.18239,-1.44421 -2.36649,-1.52628 -3.80125,-4.53319 -1.451954,-2.98868 -1.5743,-7.18598 -0.168289,-5.7735 2.346982,-9.48047 2.770078,-4.08663 7.445558,-4.22292 4.71089,-0.13731 7.69969,3.8878 2.7118,3.64324 2.86511,8.90315 z m -2.906,0.0315 q -0.1399,-4.79944 -2.32484,-7.39453 -2.20213,-2.57686 -5.23056,-2.48858 -3.09927,0.0903 -5.11112,2.82548 -2.02955,2.73566 -1.8783,7.92472 0.0976,3.34721 1.25481,5.95453 0.89122,1.99469 2.60879,3.14994 1.70037,1.17347 3.6839,1.11565 3.18782,-0.0929 5.18247,-2.80983 1.97694,-2.7164 1.81485,-8.27738 z m -21.419759,-12.50336 -6.492873,25.14944 -4.10008,-1.05853 -0.291943,-19.06929 -0.01676,-3.97512 q -0.719004,1.29656 -2.138737,3.748 l -9.458233,16.22271 -3.671201,-0.9478 6.492872,-25.14945 2.624738,0.67764 -5.434349,21.04936 11.438649,-19.49922 2.453186,0.63334 0.442634,22.9509 5.527357,-21.40962 z m -48.943512,8.45796 -2.453669,-1.41976 7.515868,-12.98911 q 1.890059,-3.26645 3.749819,-4.99471 1.835551,-1.72181 4.223456,-1.95722 2.37257,-0.24429 4.964258,1.25534 3.649833,2.11189 4.214711,5.34547 0.549541,3.22471 -2.644924,8.74547 l -7.515868,12.98911 -2.438334,-1.41089 7.506994,-12.97378 q 1.76583,-3.05175 2.080174,-4.69168 0.314345,-1.63993 -0.34208,-2.98185 -0.680634,-1.33544 -2.229513,-2.23167 -2.607023,-1.5085 -4.624374,-0.71068 -2.032686,0.78894 -4.499523,5.05219 z m 6.783579,-26.73946 -18.211273,18.52029 -2.059215,-2.02485 6.314016,-22.39181 -14.298209,14.54084 -1.920249,-1.88821 18.211273,-18.5203 2.059214,2.02486 -6.339071,22.39201 14.310632,-14.55347 z m -14.963646,-16.21533 -21.155341,15.06995 -1.634462,-2.29448 21.15534,-15.06995 z m -4.631248,-6.18712 -23.4543126,11.16007 -3.1592277,-6.63952 q -1.1723399,-2.46383 -1.3493788,-3.94927 -0.2393629,-1.94632 0.6623601,-3.88621 0.901723,-1.93988 2.8462178,-3.70882 1.9284961,-1.76133 5.0322732,-3.23817 3.983713,-1.89554 7.323232,-2.05221 3.323521,-0.14907 5.366885,1.13508 2.019753,1.27576 3.428084,4.23555 z m -3.978204,-1.22684 -1.948825,-4.0957 q -1.179952,-2.47982 -2.588902,-3.3791 -1.424949,-0.89167 -3.544162,-0.72701 -2.817747,0.22235 -6.145507,1.80577 -3.567744,1.69761 -5.135229,3.64033 -1.5910968,1.93435 -1.5558506,3.78158 0.02324,1.24469 1.0813905,3.46853 l 1.9183745,4.03171 z m -4.220778,-16.2414 -27.0861417,-2.82772 -0.6056842,-2.96856 23.7070619,-13.7337 0.644646,3.15952 -7.211949,4.00305 1.77809,8.71471 8.175377,0.71887 z m -11.679787,-3.89162 -1.441599,-7.06551 -6.6054005,3.60805 q -3.04087973,1.66924 -4.9763632,2.55237 2.5292237,-0.10014 5.0910256,0.13664 z m 7.691886,-17.91073 -25.9516144,-1.07962 0.3056214,-7.34646 q 0.1134114,-2.72616 0.6502892,-4.12247 0.6969075,-1.83297 2.3999297,-3.12756 1.7030223,-1.29459 4.2484199,-1.95121 2.5276952,-0.65737 5.961947,-0.5145 4.4078802,0.18338 7.4343252,1.60379 3.008743,1.41967 4.216323,3.5092 1.190614,2.07109 1.054373,5.34602 z m -2.945409,-2.94208 0.188528,-4.53179 q 0.114147,-2.74386 -0.712054,-4.19687 -0.843904,-1.45375 -2.794898,-2.29743 -2.59567,-1.11876 -6.2777545,-1.27194 -3.9476194,-0.16422 -6.24073792,0.82209 -2.31008438,0.96788 -3.14124608,2.61793 -0.5604995,1.11159 -0.6628643,3.57222 l -0.1855822,4.46099 z m 6.50961,-26.63703 -24.10488394,-9.67504 2.98962744,-7.44851 q 1.055939,-2.63082 2.0179035,-3.69567 1.31118,-1.45924 3.4139465,-1.79892 2.1027665,-0.33969 4.5691595,0.65026 3.25564,1.30672 4.644406,3.79238 1.388766,2.48566 -0.24794,6.56343 l -2.032682,5.06432 9.799803,3.93338 z m -11.595037,-7.68948 2.052482,-5.11366 q 0.970144,-2.41706 0.333705,-3.97073 -0.652882,-1.56028 -2.856193,-2.44463 -1.4305084,-0.57416 -2.674338,-0.42429 -1.23723,0.13343 -1.932192,0.77088 -0.6883624,0.62102 -1.5067152,2.6599 l -2.0326827,5.06433 z m 19.427852,-10.57995 -21.0710429,-15.1876 5.5218199,-7.66089 q 1.730101,-2.40032 3.137832,-3.11104 1.41809,-0.7251 3.326267,-0.46358 1.893804,0.25116 3.704821,1.55651 2.385943,1.71974 2.965068,4.03727 0.589484,2.30316 -0.717449,4.96481 1.269039,-0.54861 2.220934,-0.62691 1.942897,-0.15027 3.982766,0.14065 l 7.910464,1.11523 -2.071977,2.87463 -6.041394,-0.86006 q -3.536264,-0.51771 -4.924674,-0.47011 -1.37805,0.0332 -2.146081,0.46245 -0.772045,0.40451 -1.600836,1.55436 l -1.906219,2.64466 9.356923,6.74428 z m -10.124391,-10.77008 3.543082,-4.91562 q 1.160307,-1.60979 1.373105,-2.72315 0.212799,-1.11336 -0.268608,-2.20292 -0.481407,-1.08957 -1.588139,-1.88728 -1.59542,-1.14994 -3.174322,-0.86836 -1.593274,0.27122 -2.91934,2.11098 l -3.936757,5.4618 z m 23.837872,-6.42496 -18.107793,-18.62148 2.019656,-1.96394 18.107793,18.62148 z m 5.296686,-5.65884 -14.171194,-21.76762 3.548745,-2.31031 14.265669,12.65757 2.943999,2.67109 q -0.471177,-1.40571 -1.321352,-4.10802 l -5.583591,-17.92924 3.177537,-2.06865 14.171194,21.76762 -2.271791,1.47898 -11.860883,-18.21887 6.663976,21.60217 -2.123307,1.38232 -17.231092,-15.16671 12.063881,18.53068 z m 21.962859,-12.68784 -9.701172,-24.09438 2.613238,-1.05218 9.701172,24.09438 z m 12.516791,-4.15528 -5.162398,-22.31967 -6.835723,1.58106 -0.690716,-2.98631 16.450618,-3.80493 0.690715,2.98632 -6.870247,1.58904 5.162397,22.31967 z m 13.061666,-2.17481 -1.863847,-25.9071 2.809843,-0.20215 1.863844,25.9071 z m 13.82349,-0.0758 -5.96728,-26.59346 3.0359,0.26491 3.88435,19.27993 q 0.44444,2.24412 0.74235,4.33317 0.68057,-2.0926 1.49927,-4.13757 l 7.37672,-18.2973 2.85939,0.2495 -10.55365,25.15186 z m 9.31895,0.57459 15.6631,-22.27829 2.88761,0.91699 0.44673,27.39416 -3.07336,-0.97599 0.0168,-8.24841 -8.47708,-2.692 -4.61001,6.78981 z m 9.0879,-8.30495 6.87286,2.18256 0.0664,-7.52629 q 0.0234,-3.46882 0.19485,-5.58935 -1.14451,2.25768 -2.59914,4.37969 z"
       id="text236"
       aria-label="COMUNIDAD PRIMITIVA" />
    <circle
       style="fill:#916f6f;stroke:none;stroke-width:0.0700042;stroke-opacity:0.0121951;-inkscape-stroke:none;paint-order:stroke fill markers;stop-color:#000000"
       id="path2190"
       cx="105"
       cy="228.16794"
       r="85.072021" />
    <path
       d="m -21.250054,152.90892 -21.090447,-15.16064 2.471619,-3.43835 17.880399,6.63436 3.711312,1.42408 q -0.948126,-1.13978 -2.718946,-3.35098 l -11.695765,-14.69161 2.213081,-3.07869 21.0904463,15.16064 -1.5822493,2.20111 -17.6521,-12.68901 14.032575,17.72425 -1.478834,2.05725 -21.553056,-7.89972 17.954214,12.90619 z m 5.375693,-28.33322 q -4.699725,-4.69647 -5.15233,-9.28166 -0.465137,-4.59771 2.615749,-7.68073 1.991304,-1.99269 4.759872,-2.5073 2.768568,-0.51462 5.8759941,0.68702 3.107417,1.17658 6.0776433,4.14475 4.0856278,4.0828 4.8012699,8.50503 0.7909678,4.87322 -2.51534861,8.18183 -3.33136429,3.33367 -8.26780359,2.4584 -4.4728631,-0.78773 -8.1950461,-4.50734 z m 2.091522,-2.01778 q 3.396335,3.39399 6.7665721,3.7812 3.3702286,0.36215 5.51182,-1.78092 2.191687,-2.19321 1.77708756,-5.56317 -0.40207551,-3.38249 -4.07412746,-7.052 -2.3686615,-2.36702 -4.9999785,-3.4686 -2.0173407,-0.83869 -4.0593307,-0.49972 -2.041999,0.31391 -3.444678,1.71756 -2.254307,2.25587 -1.839716,5.60077 0.427115,3.33237 4.362351,7.26488 z M 10.248867,116.89867 -5.1611089,95.989713 0.75786619,91.627407 q 2.19643891,-1.618783 3.62125881,-2.07462 1.8654773,-0.604525 3.9412737,-0.0875 2.0757963,0.51703 4.1817323,2.090319 2.095424,1.559028 4.13467,4.32597 2.617384,3.551385 3.40523,6.80042 0.777334,3.23477 -0.09552,5.48478 -0.869101,2.22522 -3.507681,4.16986 z m 0.449249,-4.13877 3.651223,-2.69096 q 2.210701,-1.6293 2.82613,-3.18335 0.604916,-1.56832 0.04091,-3.61773 -0.753258,-2.72429 -2.939667,-5.690906 -2.344082,-3.180557 -4.5490705,-4.3507 Q 7.5264048,92.031337 5.7194608,92.416646 4.5018192,92.675772 2.5193191,94.136881 L -1.0748537,96.7858 Z M 21.180897,93.510997 q -3.094711,-5.879374 -2.166552,-10.392391 0.919907,-4.528695 4.776776,-6.558825 2.492854,-1.312158 5.289446,-0.982194 2.796591,0.329964 5.407585,2.399442 2.61842,2.045547 4.574277,5.761311 2.690336,5.111135 2.061718,9.546572 -0.690488,4.88847 -4.829567,7.067148 -4.170436,2.19518 -8.62492,-0.10528 -4.037752,-2.079319 -6.488763,-6.735783 z M 23.7769,92.204612 q 2.236445,4.248827 5.34005,5.618521 3.111032,1.345764 5.792026,-0.06543 2.743708,-1.444198 3.347614,-4.785428 0.619584,-3.349483 -1.798417,-7.943233 -1.559734,-2.963204 -3.745744,-4.795869 -1.677674,-1.399459 -3.728289,-1.681592 -2.04319,-0.306064 -3.799163,0.618223 -2.822099,1.485461 -3.418579,4.802761 -0.580802,3.309046 2.010502,8.232042 z m 32.374625,-1.219409 -7.129661,-24.976385 7.070395,-2.018287 q 2.623713,-0.748955 4.117991,-0.678021 1.959112,0.08565 3.72326,1.29562 1.764147,1.209973 3.187337,3.420117 1.418327,2.193107 2.361815,5.498304 1.210973,4.242237 0.813487,7.561716 -0.40235,3.302442 -2.006592,5.105434 -1.592069,1.781092 -4.743932,2.680811 z m 1.86754,-3.720689 4.361497,-1.245016 q 2.64075,-0.753819 3.760551,-1.994741 1.114937,-1.257959 1.302838,-3.375238 0.246476,-2.815738 -0.765099,-6.359454 -1.084526,-3.799273 -2.741433,-5.66632 -1.644734,-1.888948 -3.472382,-2.159526 -1.231411,-0.182822 -3.599568,0.493183 l -4.293349,1.225562 z m 19.013503,-1.837996 -3.589233,-25.724877 15.248921,-2.127588 0.423559,3.035746 -12.458842,1.738306 1.099294,7.878901 11.669197,-1.628131 0.421111,3.018199 -11.669197,1.62813 1.22171,8.756285 12.950177,-1.806858 0.423559,3.035746 z m 27.933732,-2.66263 1.32791,-25.940094 8.01559,0.41033 q 2.83112,0.14493 4.15054,0.709216 1.8058,0.766594 2.80956,2.645285 1.00376,1.87869 0.86789,4.532861 -0.17935,3.503505 -2.07972,5.623828 -1.90037,2.120322 -6.2886,1.895682 l -5.44989,-0.278989 -0.53986,10.545905 z m 3.50998,-13.463025 5.50298,0.281707 q 2.60109,0.133153 3.8641,-0.973087 1.26391,-1.123935 1.38529,-3.494994 0.0788,-1.539419 -0.46665,-2.667273 -0.52776,-1.126949 -1.35626,-1.577401 -0.8108,-0.449546 -3.00492,-0.561866 l -5.44989,-0.278988 z m 16.29224,14.740455 4.92019,-25.503794 9.27253,1.788856 q 2.90527,0.560486 4.14202,1.538898 1.25414,0.981767 1.81919,2.823032 0.5684,1.823868 0.14552,4.015872 -0.55713,2.887879 -2.41635,4.387766 -1.84182,1.503242 -4.80627,1.436581 1.03134,0.92074 1.50262,1.751478 0.95326,1.699627 1.547,3.672738 l 2.31422,7.64615 -3.47938,-0.671241 -1.75985,-5.843035 q -1.01715,-3.426164 -1.64411,-4.665867 -0.60957,-1.236347 -1.32195,-1.75271 -0.69162,-0.530404 -2.08337,-0.798901 l -3.20102,-0.617541 -2.18489,11.325355 z m 5.51483,-13.71439 5.94972,1.147821 q 1.94845,0.375895 3.04809,0.10084 1.09963,-0.275055 1.88579,-1.169962 0.78615,-0.894907 1.04458,-2.234465 0.37253,-1.931052 -0.54682,-3.245207 -0.916,-1.331552 -3.1428,-1.761146 l -6.6108,-1.275358 z m 19.0359,5.882016 q 2.22319,-6.261125 6.16972,-8.638886 3.95245,-2.394456 8.05975,-0.936044 2.65472,0.942632 4.30837,3.221936 1.65366,2.279305 1.90287,5.601641 0.27185,3.311568 -1.13321,7.2686 -1.93269,5.443005 -5.61909,7.988335 -4.06135,2.807026 -8.46918,1.241901 -4.44122,-1.576982 -5.77062,-6.41095 -1.20937,-4.377721 0.55139,-9.336533 z m 2.72042,1.022364 q -1.60663,4.524707 -0.50904,7.73465 1.12021,3.199174 3.97529,4.212948 2.92186,1.037489 5.78723,-0.784094 2.88207,-1.815655 4.61912,-6.707682 1.12049,-3.155607 0.98536,-6.005 -0.10888,-2.182022 -1.2919,-3.880581 -1.16038,-1.709326 -3.03037,-2.373319 -3.00535,-1.067131 -5.84809,0.743685 -2.82605,1.816744 -4.6876,7.059393 z m 15.43079,19.272801 12.2654,-22.895674 6.48138,3.472129 q 2.40514,1.288452 3.42867,2.379459 1.34704,1.425112 1.77151,3.521793 0.42448,2.09668 -0.092,4.674168 -0.50812,2.561871 -2.13124,5.591721 -2.08327,3.888829 -4.67915,5.995564 -2.58752,2.091121 -4.99433,2.269061 -2.38282,0.17069 -5.27211,-1.37713 z m 3.93065,-1.371591 3.99815,2.141843 q 2.42076,1.296819 4.08851,1.185255 1.67612,-0.127181 3.28474,-1.51661 2.13683,-1.850155 3.87708,-5.098655 1.86575,-3.482766 1.97562,-5.976586 0.13385,-2.501071 -0.99008,-3.96746 -0.7569,-0.988377 -2.92778,-2.15133 l -3.93568,-2.108377 z m 41.54075,-0.767117 2.27931,1.685513 -8.92268,12.066106 q -2.24384,3.03434 -4.28538,4.54355 -2.01676,1.5055 -4.41601,1.47212 -2.38501,-0.0228 -4.79253,-1.80317 -3.39048,-2.5072 -3.58982,-5.78369 -0.1851,-3.26596 3.60731,-8.394407 l 8.92268,-12.066108 2.26507,1.674979 -8.91215,12.051862 q -2.09636,2.834894 -2.59231,4.429334 -0.49595,1.59443 0.006,3.00139 0.52686,1.40325 1.96567,2.46723 2.42177,1.79086 4.51575,1.22389 2.10823,-0.55643 5.03681,-4.51674 z m 7.59265,29.843209 1.40039,2.6132 q -3.74938,2.44449 -6.94458,2.3186 -3.17015,-0.12598 -5.55938,-2.49746 -2.10001,-2.0844 -2.58543,-4.58825 -0.46036,-2.50396 0.8306,-5.71603 1.30354,-3.19959 4.36149,-6.28045 3.02051,-3.04313 6.04803,-4.20703 3.05257,-1.164 5.73566,-0.62276 2.69557,0.52866 4.69498,2.51321 2.18804,2.17177 2.39942,5.10261 0.22387,2.91827 -1.76848,6.18308 l -2.52335,-1.38124 q 2.81332,-4.84644 -0.21723,-7.85446 -1.50899,-1.49777 -3.38944,-1.8165 -1.86796,-0.33129 -4.15701,0.64193 -2.27649,0.98571 -4.76029,3.48812 -3.75691,3.78505 -4.30867,7.00689 -0.53927,3.20927 1.67391,5.406 1.63474,1.62259 3.96508,1.63895 2.35539,0.0163 5.1043,-1.94841 z m 14.23016,17.80677 1.00831,2.78805 q -4.06312,1.87737 -7.20663,1.29133 -3.11872,-0.5825 -5.14041,-3.27417 -1.77696,-2.36584 -1.89567,-4.91355 -0.0939,-2.54419 1.64742,-5.53614 1.75196,-2.97779 5.2228,-5.58471 3.42834,-2.575 6.59221,-3.28945 3.18868,-0.71094 5.76547,0.21213 2.59096,0.91242 4.2828,3.16492 1.85144,2.465 1.63733,5.39565 -0.19994,2.92001 -2.64292,5.86284 l -2.29742,-1.73118 q 3.48377,-4.38932 0.91941,-7.80349 -1.27685,-1.7 -3.09155,-2.28696 -1.80053,-0.5976 -4.20614,0.0348 -2.39498,0.64659 -5.21415,2.76405 -4.26417,3.20278 -5.27545,6.31116 -0.99711,3.09774 0.87561,5.59108 1.38326,1.84167 3.6868,2.19441 2.32835,0.35627 5.33218,-1.1908 z m -3.64564,11.33497 22.2271,-13.43905 1.45757,2.41072 -22.2271,13.43904 z m 15.26515,0.48326 q 6.01764,-2.81643 10.48232,-1.67828 4.48074,1.13064 6.32832,5.07821 1.19416,2.55148 0.73381,5.32959 -0.46036,2.7781 -2.64966,5.28948 -2.16573,2.51992 -5.96888,4.29991 -5.23133,2.44842 -9.63253,1.61311 -4.85084,-0.9183 -6.8336,-5.15472 -1.9978,-4.26851 0.50842,-8.61056 2.26583,-3.93612 7.0318,-6.16674 z m 1.18358,2.65425 q -4.34875,2.03534 -5.86205,5.07151 -1.48975,3.04471 -0.20546,5.78875 1.31434,2.80823 4.62368,3.5677 3.31685,0.77551 8.01863,-1.42506 3.03289,-1.41948 4.96576,-3.51742 1.47637,-1.6104 1.85407,-3.64558 0.40126,-2.02665 -0.43992,-3.82392 -1.35189,-2.88846 -4.63767,-3.63939 -3.27827,-0.73488 -8.31704,1.62341 z m 15.76307,-2.05668 5.31181,-0.35381 1.44953,3.09708 -5.84506,-0.78553 z m -18.64343,26.56036 24.91065,-7.35603 0.8179,2.76974 -16.38687,16.51454 19.55809,-5.77543 0.7627,2.58282 -24.91066,7.35603 -0.81789,-2.76974 16.40888,-16.50257 -19.57508,5.78046 z m 6.70182,25.01338 26.66212,5.54852 0.30282,3.01455 -24.97276,11.26947 -0.32229,-3.20847 7.57933,-3.2543 -0.88896,-8.84971 -8.06099,-1.54077 z m 11.22709,5.05119 0.72073,7.17498 6.93599,-2.92258 q 3.1939,-1.35362 5.20867,-2.03679 -2.52641,-0.15578 -5.0512,-0.65005 z m -0.9134,16.36049 0.2008,2.66517 q -2.1494,0.14592 -3.37673,0.85229 -1.21018,0.72462 -1.97972,2.10107 -0.76955,1.37646 -0.82403,3.12966 -0.0781,2.51469 1.10087,3.93397 1.19616,1.43754 3.16187,1.49862 1.15109,0.0358 2.01709,-0.45138 0.88315,-0.46889 1.46405,-1.47896 0.58035,-0.99236 1.67716,-4.34398 0.97901,-2.98303 1.92179,-4.23002 0.94278,-1.24699 2.34611,-1.91243 1.42103,-0.66489 3.17423,-0.61041 3.15221,0.0979 5.09006,2.19667 1.93784,2.09873 1.83054,5.55201 -0.0737,2.37301 -1.06735,4.11476 -0.99416,1.75945 -2.77763,2.67897 -1.78402,0.93723 -4.15924,0.93433 l -0.16373,-2.71719 q 2.53901,-0.13382 3.80165,-1.40632 1.2621,-1.2548 1.33529,-3.61011 0.0743,-2.39073 -0.9669,-3.68164 -1.02347,-1.29036 -2.72354,-1.34319 -1.57611,-0.049 -2.47247,0.84493 -0.89636,0.89391 -1.88197,4.08945 -0.9657,3.12526 -1.64285,4.3805 -1.05224,1.91719 -2.71229,2.85827 -1.64234,0.94163 -3.8914,0.87175 -2.23134,-0.0693 -4.04062,-1.17141 -1.79157,-1.10151 -2.69173,-2.93756 -0.90071,-1.81833 -0.82202,-4.35073 0.12271,-3.94913 2.56892,-6.2307 2.44565,-2.26386 6.50379,-2.22639 z m -9.54592,21.03053 25.76831,3.26279 -0.35387,2.79479 -25.76832,-3.26279 z m -0.4071,5.41939 23.55026,13.67625 -0.66364,2.95614 -27.25271,2.81589 0.70634,-3.1463 8.21892,-0.69708 1.94825,-8.67826 -7.16331,-4.00508 z m 9.06029,8.33505 -1.57955,7.03596 7.50379,-0.58525 q 3.45783,-0.27692 5.58524,-0.28961 -2.34825,-0.94483 -4.5882,-2.21035 z m 16.4865,4.53647 4.41743,2.971 -0.74902,3.33646 -4.14189,-4.1984 z m -32.61459,13.82708 21.52672,7.837 2.40019,-6.59286 2.88022,1.04857 -5.77623,15.86617 -2.88022,-1.04857 2.41232,-6.62617 -21.52671,-7.837 z m -4.97471,12.2795 23.51764,11.026 -1.19587,2.55069 -23.51763,-11.02601 z m -3.14228,24.71315 -2.19973,1.98774 q -3.27444,-3.05147 -3.92065,-6.18317 -0.6401,-3.10741 1.08719,-5.99683 1.51819,-2.53966 3.83183,-3.61299 2.31975,-1.04902 5.74802,-0.56841 3.41918,0.49581 7.14502,2.7231 3.68022,2.20002 5.53805,4.85878 1.86395,2.68306 1.98385,5.41756 0.13511,2.7436 -1.31035,5.16159 -1.58184,2.64611 -4.37583,3.55614 -2.77879,0.91911 -6.42691,-0.22962 l 0.73385,-2.78147 q 5.38078,1.56524 7.57171,-2.09977 1.09092,-1.82491 0.94806,-3.72681 -0.12765,-1.89281 -1.62281,-3.88064 -1.50424,-1.97262 -4.53054,-3.78172 -4.57746,-2.73639 -7.83744,-2.49713 -3.24478,0.24834 -4.84479,2.92487 -1.18183,1.97698 -0.63729,4.24285 0.55065,2.29018 3.11876,4.48593 z m -1.06774,8.08956 q 5.12675,4.2262 6.01516,8.74721 0.90209,4.53228 -1.8703,7.89542 -1.7919,2.17374 -4.49867,2.9504 -2.70677,0.77666 -5.91475,-0.12273 -3.20557,-0.87445 -6.44568,-3.54541 -4.45685,-3.67397 -5.59154,-8.00764 -1.25274,-4.77542 1.7225,-8.38465 2.99778,-3.63657 7.99525,-3.23672 4.52765,0.35698 8.58803,3.70412 z m -1.88927,2.20829 q -3.70493,-3.05413 -7.09674,-3.11772 -3.38941,-0.0386 -5.31655,2.29915 -1.97223,2.39249 -1.2377,5.70745 0.72326,3.32864 4.72896,6.6307 2.58388,2.13 5.30837,2.97526 2.08822,0.64221 4.0885,0.10978 2.00269,-0.50748 3.26491,-2.03867 2.02858,-2.46084 1.29645,-5.75086 -0.7434,-3.27635 -5.0362,-6.81509 z"
       id="text2365"
       style="font-stretch:condensed;font-size:36.2857px;line-height:1.25;font-family:Arial;-inkscape-font-specification:'Arial, Condensed';text-align:center;text-anchor:middle;fill:#ffffff;stroke-width:0.264583"
       transform="rotate(39.326774,103.22478,229.57908)"
       aria-label="MODO DE PRODUCCIÓN ASIÁTICO" />
    <path
       d="m 16.862609,310.57236 -19.8162421,16.79191 -9.9537339,-11.74646 2.338479,-1.98158 8.1325096,9.59722 6.0692312,-5.14295 -7.6170693,-8.98895 2.3249616,-1.97013 7.6170692,8.98895 6.7450917,-5.71567 -8.4532283,-9.9757 2.3384788,-1.98159 z m -19.1803041,-10.24018 -1.6100258,-2.13336 q 1.7291797,-1.28498 2.3796688,-2.54282 0.62618181,-1.26392 0.5292477,-2.8379 -0.096934,-1.57399 -0.9990975,-3.07825 -1.2940119,-2.15761 -3.0532268,-2.714 -1.783522,-0.56247 -3.4701099,0.44904 -0.9876416,0.59233 -1.4527069,1.47039 -0.4893725,0.87197 -0.4318615,2.03574 0.0484,1.14858 0.9380444,4.56104 0.7894449,3.0387 0.6706449,4.59746 -0.1188,1.55875 -0.9394595,2.87733 -0.8358538,1.32768 -2.3401078,2.22985 -2.704619,1.62207 -5.469563,0.90445 -2.764944,-0.71763 -4.541933,-3.68055 -1.221109,-2.03606 -1.327078,-4.03849 -0.115081,-2.01762 0.887971,-3.75548 0.99394,-1.75305 2.99355,-3.03494 l 1.606975,2.19718 q -2.063458,1.48546 -2.437533,3.23863 -0.383188,1.73798 0.828809,3.75884 1.230222,2.05126 2.804092,2.57419 1.558675,0.53204 3.017346,-0.34278 1.352309,-0.81104 1.622975,-2.04768 0.270666,-1.23664 -0.628132,-4.45767 -0.877541,-3.15115 -0.986658,-4.57321 -0.151513,-2.18171 0.736065,-3.87097 0.872384,-1.68015 2.802083,-2.83747 1.9145057,-1.14821 4.0323851,-1.19946 2.1026849,-0.0421 3.8526886,1.01561 1.74089107,1.04255 3.04401579,3.21536 2.03214561,3.38837 1.20808161,6.63035 -0.8331767,3.22678 -4.2671502,5.38957 z m -17.2400279,-33.10241 -0.218074,-2.95675 q 4.419105,-0.71058 7.287641,0.70244 2.8456024,1.40294 4.0654449,4.5405 1.0721773,2.75776 0.4985908,5.2429 -0.5965202,2.47505 -3.0810127,4.88572 -2.490912,2.39415 -6.536718,3.9671 -3.996266,1.5537 -7.235537,1.38736 -3.262204,-0.17643 -5.49406,-1.76095 -2.248369,-1.5781 -3.269185,-4.20374 -1.117119,-2.87335 -0.119676,-5.63734 0.98093,-2.75758 4.127753,-4.9315 l 1.744662,2.2872 q -4.539512,3.28567 -2.992238,7.26542 0.770427,1.98162 2.359243,3.03675 1.572303,1.06156 4.059329,1.10214 2.480606,0.0241 5.766792,-1.25355 4.970562,-1.93249 6.783556,-4.65237 1.796481,-2.71347 0.666521,-5.61984 -0.834629,-2.14676 -2.957371,-3.10836 -2.145677,-0.9717 -5.455661,-0.29313 z m 6.736705,-9.25151 -25.37666,5.53869 -0.600716,-2.75232 22.382006,-4.88507 -2.23663,-10.2476 2.994654,-0.65361 z m -3.156275,-14.07475 -26.483783,-6.34541 -0.212294,-3.02227 25.299409,-10.51567 0.22595,3.21668 -7.673489,3.02559 0.623224,8.8724 8.011173,1.78176 z m -11.070598,-5.38554 -0.505283,-7.19335 -7.020496,2.7133 q -3.233049,1.25726 -5.267398,1.87971 2.520601,0.23146 5.029442,0.8012 z m 10.365111,-20.67824 -26.573257,6.0566 0.254707,-3.03677 19.266772,-3.94911 q 2.242611,-0.45197 4.330649,-0.7569 -2.094869,-0.67354 -4.14258,-1.48536 l -18.321985,-7.3152 0.239899,-2.86022 25.187175,10.46909 z m 1.793967,-14.16072 -25.484252,-5.02044 0.544509,-2.76398 25.484252,5.02044 z m -6.804627,-9.26199 0.540273,-2.61755 q 2.10659,0.45112 3.480904,0.10973 1.36284,-0.36367 2.481416,-1.47526 1.118576,-1.11158 1.653348,-2.78212 0.767045,-2.39613 0.02407,-4.08503 -0.754452,-1.71118 -2.62748,-2.31077 -1.096818,-0.35111 -2.063426,-0.12105 -0.978081,0.2078 -1.814479,1.01904 -0.830997,0.79437 -2.807678,3.71483 -1.762001,2.59852 -3.011506,3.53797 -1.249505,0.93945 -2.781756,1.19308 -1.549125,0.24822 -3.219664,-0.28655 -3.003594,-0.96151 -4.289171,-3.51243 -1.285577,-2.55092 -0.232239,-5.84137 0.723832,-2.26113 2.158334,-3.66225 1.439903,-1.418 3.407537,-1.8113 1.973035,-0.41018 4.255775,0.24615 l -0.590228,2.65737 q -2.47782,-0.56996 -4.041863,0.306 -1.558641,0.8591 -2.277071,3.10336 -0.729234,2.278 -0.08343,3.80557 0.628924,1.52217 2.24884,2.04073 1.501797,0.48076 2.60952,-0.13201 1.107722,-0.61277 2.934543,-3.41378 1.78834,-2.73891 2.784734,-3.75938 1.539141,-1.55366 3.394057,-2.00165 1.838043,-0.45339 3.981057,0.23263 2.126139,0.68062 3.562346,2.23797 1.419333,1.55195 1.779559,3.56481 0.365628,1.99598 -0.40682,4.40898 -1.204586,3.76293 -4.184149,5.28335 -2.974161,1.50355 -6.865344,0.35093 z m 14.45157,-17.1696 -22.883155,-12.28874 2.003416,-3.73061 18.5914088,4.2524 3.8650087,0.92927 q -1.0883166,-1.00677 -3.1316933,-2.96887 l -13.5072732,-13.04561 1.793854,-3.34038 22.8831556,12.28874 -1.2825217,2.38821 -19.1525459,-10.28532 16.2186727,15.74856 -1.1986968,2.23212 -22.3974479,-5.02934 19.4803397,10.46136 z m 1.9857922,-29.11504 q -5.1266862,-4.22627 -6.0150322,-8.74729 -0.902016,-4.53229 1.8704168,-7.8954 1.7919383,-2.17371 4.4987199,-2.95033 2.7067815,-0.77662 5.9147457,0.12282 3.205563,0.8745 6.4456289,3.5455 4.4567997,3.67404 5.5914207,8.00773 1.252664,4.77543 -1.72263,8.38462 -2.9978336,3.63653 -7.995292,3.23661 -4.5276421,-0.35705 -8.5879778,-3.70426 z m 1.8893021,-2.20826 q 3.70488539,3.05418 7.0966962,3.11782 3.3894096,0.0387 5.3165886,-2.29907 1.9722589,-2.39245 1.2377799,-5.70743 -0.7232099,-3.32864 -4.7288609,-6.63077 -2.58385,-2.13004 -5.30832661,-2.97533 -2.08820509,-0.64225 -4.08849919,-0.10985 -2.0026952,0.50746 -3.2649411,2.03863 -2.0286094,2.46081 -1.2965309,5.75084 0.7433485,3.27636 5.036094,6.81516 z"
       id="text3188"
       style="font-stretch:condensed;font-size:36.2857px;line-height:1.25;font-family:Arial;-inkscape-font-specification:'Arial, Condensed';text-align:center;text-anchor:middle;fill:#ff0000;stroke-width:0.264583"
       inkscape:transform-center-x="123.35443"
       inkscape:transform-center-y="-14.17867"
       transform="translate(1.0583333)"
       aria-label="ESCLAVISMO" />
    <path
       style="font-stretch:condensed;font-size:36.2857px;line-height:1.25;font-family:Arial;-inkscape-font-specification:'Arial, Condensed';text-align:center;text-anchor:middle;fill:#fabb00;stroke-width:0.264583"
       d="m -34.961136,309.06639 -22.434305,13.09022 -7.241588,-12.4108 2.647432,-1.54475 5.821843,9.97761 6.947595,-4.05387 -5.036073,-8.63093 2.647432,-1.54475 5.036073,8.63093 10.191847,-5.94685 z m -8.901511,-15.69821 -23.784028,10.43896 -6.187896,-14.09845 2.806711,-1.23188 5.055702,11.51887 7.284467,-3.1972 -4.73527,-10.7888 2.790486,-1.22476 4.735271,10.7888 8.095655,-3.55323 -5.255083,-11.97314 2.806711,-1.23188 z m -36.602646,-24.15609 -0.808057,-2.71722 14.384263,-4.27765 q 3.617294,-1.07572 6.156025,-1.05435 2.516698,0.009 4.413863,1.47855 1.892114,1.45212 2.745623,4.32218 1.201984,4.04186 -0.608553,6.77994 -1.815588,2.7211 -7.929324,4.53922 l -14.384263,4.27765 -0.803006,-2.70023 14.36728,-4.2726 q 3.379538,-1.00502 4.734429,-1.98096 1.35489,-0.97594 1.799548,-2.40209 0.422624,-1.43808 -0.08746,-3.15333 -0.85856,-2.88704 -2.872716,-3.69288 -2.019207,-0.82283 -6.74037,0.58117 z m 23.034974,-14.68134 -25.643927,4.12806 -1.168584,-7.25936 q -0.433644,-2.69384 -0.186617,-4.16926 0.31657,-1.93527 1.726546,-3.54406 1.409976,-1.60879 3.772821,-2.76082 2.345353,-1.14921 5.738887,-1.69549 4.35562,-0.70115 7.604864,0.0858 3.231751,0.7898 4.832524,2.59587 1.580465,1.7914 2.1014,5.0275 z m -3.473916,-2.29415 -0.720862,-4.47807 q -0.436459,-2.71133 -1.53635,-3.96993 -1.117384,-1.25578 -3.197621,-1.69258 -2.766879,-0.57751 -6.405308,0.008 -3.900815,0.62794 -5.950588,2.05259 -2.070081,1.40998 -2.554749,3.19285 -0.327066,1.20117 0.06434,3.63262 l 0.709598,4.4081 z m 0.464971,-16.69914 -26.245111,-7.26975 -0.106236,-3.02785 25.652428,-9.62249 0.11307,3.22263 -7.774819,2.75478 0.311874,8.88879 7.943801,2.06145 z m -10.875038,-5.77024 -0.252854,-7.20665 -7.111281,2.46558 q -3.275128,1.14316 -5.330043,1.69393 2.51094,0.31966 4.998271,0.97699 z m 10.427157,-16.23373 -25.901787,-1.93632 0.21001,-2.80927 22.845164,1.70782 0.781924,-10.45966 3.056622,0.2285 z m 1.65162,-17.17397 -25.684591,-3.86699 0.419408,-2.78571 25.684591,3.86699 z m -7.233864,-8.6802 0.340963,-2.65088 q 2.134653,0.29067 3.479244,-0.15359 1.331468,-0.4656 2.362862,-1.65852 1.031394,-1.19292 1.43842,-2.89909 0.583816,-2.44723 -0.284644,-4.07517 -0.881582,-1.64928 -2.794558,-2.10564 -1.120211,-0.26724 -2.066674,0.0352 -0.959586,0.28109 -1.7323,1.15321 -0.768603,0.85489 -2.518981,3.91635 -1.560636,2.72421 -2.73559,3.75538 -1.174954,1.03117 -2.683663,1.39984 -1.525942,0.36457 -3.23211,-0.0425 -3.067655,-0.73183 -4.54229,-3.17832 -1.474636,-2.4465 -0.672917,-5.80714 0.550925,-2.30935 1.875466,-3.81485 1.328652,-1.52274 3.260945,-2.06358 1.936405,-0.55808 4.262209,-0.0761 l -0.387765,2.69436 q -2.513801,-0.38111 -4.00719,0.61052 -1.489278,0.9744 -2.036091,3.26652 -0.555036,2.32659 0.204331,3.801 0.742133,1.4703 2.396599,1.86499 1.533827,0.36591 2.592086,-0.3288 1.058258,-0.69471 2.66823,-3.62573 1.576293,-2.8662 2.492736,-3.95904 1.417357,-1.6655 3.233124,-2.25236 1.798533,-0.59097 3.987253,-0.0688 2.171486,0.51803 3.721253,1.96242 1.532532,1.44028 2.043808,3.42016 0.515388,1.96265 -0.07254,4.42712 -0.916838,3.84318 -3.773009,5.58438 -2.852061,1.72397 -6.819208,0.86863 z m 13.059191,-18.20357 -24.228461,-9.36128 1.526157,-3.94994 18.974834,1.91808 3.95032,0.44364 q -1.204583,-0.8643 -3.475148,-2.55834 l -15.018405,-11.27306 1.366517,-3.53676 24.228461,9.36128 -0.976996,2.52862 -20.278527,-7.83512 18.04357,13.61954 -0.91314,2.36335 -22.847779,-2.21785 20.625593,7.96922 z m -2.074794,-28.59138 q -5.788161,-3.26212 -7.455281,-7.55741 -1.682555,-4.30399 0.457398,-8.10102 1.383141,-2.45418 3.911868,-3.69327 2.528728,-1.23909 5.844689,-0.91593 3.309224,0.29903 6.967342,2.36069 5.031842,2.83587 6.908585,6.90356 2.070396,4.4819 -0.22614,8.55676 -2.313933,4.10574 -7.304114,4.58806 -4.520123,0.44216 -9.104347,-2.14144 z m 1.472941,-2.50526 q 4.182912,2.35743 7.533357,1.8255 3.343709,-0.55606 4.831238,-3.19546 1.522325,-2.70114 0.218107,-5.83603 -1.295519,-3.15033 -5.818003,-5.69913 -2.917233,-1.64411 -5.747702,-1.99872 -2.168454,-0.26624 -4.044445,0.60856 -1.882728,0.85067 -2.857015,2.5794 -1.56582,2.77832 -0.268338,5.88908 1.306181,3.09532 6.152801,5.8268 z"
       id="text180"
       aria-label="FEUDALISMO" />
    <path
       d="m 20.187426,20.076157 2.931871,-0.440525 q 1.041955,4.3529 -0.150628,7.319867 -1.184248,2.943337 -4.220839,4.396417 -2.669003,1.277181 -5.190339,0.892722 Q 11.04449,31.836549 8.4532514,29.541011 5.8779949,27.237825 4.0042862,23.322222 2.1535209,19.454564 2.0749941,16.211977 2.0048015,12.945759 3.4164244,10.600719 4.8203996,8.2396977 7.3615464,7.023699 10.142424,5.6929835 12.97379,6.4790537 q 2.823718,0.7700882 5.228857,3.7439303 l -2.14905,1.912248 Q 12.434809,7.8565461 8.5831335,9.6996636 6.6652868,10.617398 5.7330289,12.281291 q -0.9399056,1.647911 -0.7927418,4.130912 0.1631459,2.475352 1.6850562,5.655781 2.301985,4.810599 5.1508997,6.413223 2.841266,1.586643 5.654108,0.240632 2.077667,-0.994213 2.876383,-3.183455 0.807051,-2.212871 -0.119308,-5.462227 z m 8.026401,6.32672 -0.982351,-27.21562199 2.854892,-1.01428531 16.909643,21.5569783 -3.03854,1.079531 -4.970921,-6.582293 -8.381028,2.97761 0.429807,8.195659 z M 30.436329,14.294094 37.231306,11.879976 32.73621,5.8431314 q -2.077515,-2.7779897 -3.222272,-4.5711865 0.452349,2.490458 0.575625,5.0602239 z m 19.21403,4.765144 -6.185958,-25.2266882 7.79515,-1.9114864 q 2.753253,-0.6751386 4.179198,-0.5140101 1.949961,0.2150576 3.451467,1.7258485 1.501507,1.510791 2.134449,4.0919664 0.835484,3.4071516 -0.375055,5.9843124 -1.21054,2.5771609 -5.478083,3.6236258 l -5.300014,1.299642 2.514892,10.2558706 z M 49.14152,5.1554927 54.493157,3.8431919 q 2.529552,-0.6202837 3.42119,-2.0429348 0.887418,-1.43985899 0.32199,-3.7457091 -0.367107,-1.4970817 -1.21379,-2.4205006 -0.829474,-0.9276385 -1.752502,-1.1208771 -0.905819,-0.1974583 -3.039591,0.3257742 l -5.300014,1.299642 z m 20.848983,9.3589663 -4.350871,-25.607066 2.777302,-0.471888 4.35087,25.607065 z m 13.533458,-1.915763 -2.35489,-22.787555 -6.979019,0.7212198 -0.315078,-3.0489148 16.795467,-1.735662 0.315078,3.048915 -7.014266,0.724862 2.35489,22.787554 z m 8.63451,-1.011468 7.883099,-26.067448 3.02951,-0.03521 9.01839,25.870988 -3.22439,0.03748 -2.57174,-7.8372707 -8.893653,0.1033778 -2.247137,7.8932839 z M 98.182106,0.85047007 105.3927,0.76665584 103.09453,-6.400479 q -1.06606,-3.301031 -1.5685,-5.368295 -0.37844,2.5027553 -1.0939,4.9739901 z m 16.454674,10.73789893 2.03393,-25.894305 2.80845,0.220597 -1.79391,22.8385646 10.45664,0.8213412 -0.24002,3.0557402 z m 17.64169,1.715436 3.68544,-25.711271 2.7886,0.399717 -3.68543,25.71127 z m 8.98301,-7.2159589 2.65707,0.2888157 q -0.24867,2.1399513 0.22191,3.4755547 0.49167,1.3220645 1.70463,2.3298215 1.21295,1.007758 2.92679,1.381185 2.45823,0.535623 4.06879,-0.364652 1.63164,-0.913815 2.05033,-2.835388 0.24518,-1.1252452 -0.0758,-2.0655834 -0.2999,-0.9538777 -1.18703,-1.7093088 -0.86982,-0.7516591 -3.96508,-2.4415522 -2.75435,-1.5068123 -3.8084,-2.6612807 -1.05406,-1.15446831 -1.4523,-2.6556424 -0.39447,-1.5184856 -0.021,-3.2323208 0.67141,-3.0814409 3.08847,-4.6038572 2.41705,-1.5224165 5.79279,-0.7868774 2.31973,0.5054472 3.85096,1.8001543 1.54854,1.2984792 2.12725,3.219774 0.59601,1.9250668 0.15981,4.25989123 l -2.70146,-0.33475461 q 0.33166,-2.52080362 -0.68912,-3.99442232 -1.00347,-1.4698467 -3.3059,-1.971522 -2.33705,-0.5092192 -3.79625,0.2789686 -1.45544,0.7708764 -1.81755,2.4327771 -0.3357,1.5407205 0.37966,2.585126 0.71537,1.04440557 3.67746,2.5964818 2.89661,1.5196769 4.00725,2.4144732 1.69303,1.3843615 2.31544,3.1882481 0.62619,1.7865751 0.14715,3.9851315 -0.47527,2.181244 -1.88893,3.759089 -1.4099,1.560534 -3.37935,2.110609 -1.95215,0.553848 -4.42769,0.01445 -3.86045,-0.841155 -5.65743,-3.662567 -1.77967,-2.817639 -1.00244,-6.8008249 z m 18.90735,12.8022949 8.36047,-24.5917558 4.00916,1.362996 -1.13883,19.0375008 -0.28137,3.965182 q 0.81421,-1.238992 2.41377,-3.577075 l 10.64809,-15.46778699 3.58979,1.22042314 -8.36047,24.59175585 -2.56653,-0.872546 6.99747,-20.5825947 -12.86863,18.5865757 -2.39878,-0.815517 1.27963,-22.9194769 -7.11724,20.9348639 z m 28.66423,-3.24133 q 2.88467,-5.9852292 7.06435,-7.9240587 4.18737,-1.95479 8.11368,-0.062449 2.53774,1.2230987 3.93626,3.6672634 1.39852,2.444166 1.28843,5.774016 -0.0864,3.321583 -1.90955,7.104248 -2.50774,5.203159 -6.44686,7.336602 -4.34007,2.35323 -8.55367,0.322425 -4.24553,-2.046191 -5.0465,-6.995228 -0.7308,-4.482518 1.55386,-9.222819 z m 2.59446,1.309443 q -2.08465,4.325325 -1.3392,7.634818 0.7691,3.301224 3.49836,4.616632 2.79311,1.346178 5.83802,-0.156166 3.06087,-1.494651 5.31476,-6.17111 1.45387,-3.016556 1.62645,-5.863926 0.12679,-2.181054 -0.86639,-3.997158 -0.96951,-1.824372 -2.7571,-2.685926 -2.87291,-1.3846399 -5.89417,0.109436 -3.0053,1.501768 -5.42073,6.5134 z"
       id="text897"
       style="font-stretch:condensed;font-size:36.2857px;line-height:1.25;font-family:Arial;-inkscape-font-specification:'Arial, Condensed';text-align:center;letter-spacing:0.470958px;text-anchor:middle;stroke-width:0.264583"
       transform="translate(0,-4.7625002)"
       aria-label="CAPITALISMO" />
    <path
       style="font-stretch:condensed;font-size:36.2857px;line-height:1.25;font-family:Arial;-inkscape-font-specification:'Arial, Condensed';text-align:center;text-anchor:middle;fill:#ffff00;stroke-width:0.264583"
       d="m 182.81663,430.50236 -2.95933,0.17975 q -0.65326,-4.42794 0.79681,-7.27792 1.43969,-2.82719 4.59279,-4.00628 2.77141,-1.03635 5.24892,-0.43062 2.46711,0.62854 4.84538,3.14406 2.36168,2.52172 3.88208,6.58756 1.50178,4.01606 1.29349,7.2529 -0.21868,3.25964 -1.83198,5.47078 -1.6071,2.22773 -4.24575,3.21444 -2.88758,1.0798 -5.63841,0.0466 -2.74463,-1.01658 -4.8776,-4.1913 l 2.30961,-1.71488 q 3.22657,4.5817 7.22603,3.08612 1.99144,-0.74469 3.06707,-2.3197 1.08183,-1.55841 1.15464,-4.0447 0.0562,-2.48009 -1.17873,-5.78255 -1.86792,-4.99518 -4.56408,-6.84326 -2.68996,-1.83148 -5.61073,-0.73928 -2.15739,0.80675 -3.14642,2.91685 -0.99942,2.13291 -0.36379,5.4514 z m -5.18249,5.54542 q 1.71584,6.41873 -0.18872,10.61414 -1.89997,4.21252 -6.11066,5.33811 -2.72154,0.72752 -5.37562,-0.21358 -2.65408,-0.9411 -4.74194,-3.53741 -2.1004,-2.57462 -3.18481,-6.63126 -1.49163,-5.58002 0.10364,-9.76611 1.75593,-4.61417 6.27471,-5.82212 4.55302,-1.2171 8.38744,2.01271 3.47702,2.92188 4.83596,8.00552 z m -2.82085,0.69904 q -1.23998,-4.6386 -3.96319,-6.6616 -2.73576,-2.00131 -5.6627,-1.21889 -2.99541,0.80073 -4.32426,3.92525 -1.34596,3.1291 -0.005,8.14427 0.86478,3.23504 2.59065,5.50631 1.3261,1.73624 3.26332,2.46549 1.92467,0.75095 3.84173,0.23848 3.08099,-0.8236 4.3973,-3.92643 1.2992,-3.09826 -0.13753,-8.47288 z m -23.56254,-6.93589 4.07146,25.65296 -4.18217,0.66376 -7.86989,-17.37203 -1.60009,-3.6389 q -0.14251,1.47571 -0.46725,4.28992 l -2.2068,18.64843 -3.7447,0.59433 -4.07146,-25.65296 2.67729,-0.42492 3.40769,21.47079 2.71682,-22.44283 2.5023,-0.39714 9.55553,20.87177 -3.46601,-21.83826 z m -37.02092,30.31674 -2.83017,0.16217 -0.85845,-14.98226 q -0.21588,-3.76768 0.38819,-6.23358 0.5874,-2.44721 2.45308,-3.9561 1.84799,-1.50787 4.83737,-1.67915 4.20989,-0.24122 6.45875,2.14995 2.23118,2.39219 2.59604,8.7601 l 0.85845,14.98225 -2.81249,0.16115 -0.85744,-14.96457 q -0.20168,-3.52003 -0.84023,-5.0629 -0.63855,-1.54287 -1.92439,-2.30329 -1.30252,-0.74171 -3.08907,-0.63935 -3.00706,0.1723 -4.2541,1.94743 -1.26472,1.77615 -0.98297,6.69359 z m -8.9684,-25.7095 -0.92854,25.95744 -2.88613,-0.10324 -10.461358,-20.78025 -0.729021,20.37995 -2.691358,-0.0963 0.928536,-25.95744 2.886128,0.10324 10.443023,20.79733 0.72965,-20.39766 z m -22.058268,-1.18435 -2.597404,25.84385 -2.802982,-0.28171 2.597404,-25.84385 z m -8.106743,7.65113 -2.66871,-0.14635 q 0.133911,-2.15018 -0.407406,-3.45871 -0.561646,-1.29389 -1.826741,-2.23536 -1.265096,-0.94147 -2.996443,-1.22274 -2.483346,-0.40343 -4.043473,0.58166 -1.580456,0.99974 -1.895817,2.94095 -0.184671,1.13674 0.186119,2.05857 0.350461,0.93648 1.276712,1.64341 0.908762,0.70408 4.089937,2.22607 2.830966,1.35741 3.945232,2.45387 1.114266,1.09646 1.592195,2.5742 0.475089,1.49522 0.193821,3.22657 -0.505714,3.11293 -2.837918,4.76239 -2.332203,1.64945 -5.742433,1.09544 -2.343439,-0.3807 -3.941697,-1.59169 -1.615746,-1.21384 -2.296338,-3.10144 -0.69808,-1.89045 -0.387328,-4.24526 l 2.715494,0.18985 q -0.196415,2.53493 0.901688,3.95187 1.080614,1.41409 3.406566,1.79196 2.360928,0.38355 3.775907,-0.48153 1.412139,-0.84758 1.684883,-2.52646 0.252857,-1.55647 -0.517324,-2.56113 -0.770181,-1.00467 -3.811007,-2.39616 -2.973714,-1.36265 -4.130597,-2.19679 -1.764618,-1.29186 -2.482585,-3.05989 -0.720809,-1.75054 -0.359991,-3.97157 0.357977,-2.20353 1.685263,-3.85469 1.324445,-1.63368 3.261676,-2.28826 1.919743,-0.65742 4.420577,-0.25115 3.899904,0.63357 5.845149,3.35487 1.927757,2.71846 1.364589,6.7375 z m -19.103371,-11.6544 -6.61929,25.11645 -4.094701,-1.07914 -0.196018,-19.07051 0.0032,-3.97515 q -0.725517,1.29293 -2.157562,3.7372 l -9.539709,16.17491 -3.666384,-0.96625 6.619291,-25.11645 2.621293,0.69083 -5.540157,21.02174 11.53658,-19.44142 2.449967,0.64567 0.327182,22.95283 5.634976,-21.38153 z m -27.71768,5.50085 q -2.349839,6.21469 -6.343819,8.51184 -4.000247,2.31372 -8.077088,0.77223 -2.635032,-0.99633 -4.2420712,-3.30874 -1.6070395,-2.3124 -1.7887585,-5.63911 -0.2045579,-3.3164 1.2805405,-7.24409 2.0427932,-5.40264 5.7801062,-7.87261 4.117491,-2.72399 8.492638,-1.06971 4.408292,1.66682 5.639274,6.52678 1.120251,4.40137 -0.740822,9.32341 z m -2.699095,-1.07738 q 1.69815,-4.49116 0.665955,-7.72272 -1.055033,-3.22125 -3.888935,-4.29278 -2.900192,-1.09659 -5.801952,0.66644 -2.918332,1.75677 -4.75434,6.61252 -1.184319,3.13221 -1.107064,5.98376 0.06456,2.18378 1.212843,3.906 1.125447,1.73253 2.98157,2.43435 2.983055,1.12792 5.861976,-0.62481 2.862348,-1.75899 4.829947,-6.96276 z"
       id="text120"
       transform="translate(0,53.975028)"
       aria-label="COMUNISMO" />
    <path
       style="font-stretch:condensed;font-size:36.2857px;line-height:1.25;font-family:Arial;-inkscape-font-specification:'Arial, Condensed';text-align:center;text-anchor:middle;fill:#ffff00;stroke-width:0.264583"
       d="m 370.46733,128.99469 0.99982,2.47866 q -2.00385,0.79107 -2.95907,1.83646 -0.93333,1.05759 -1.24906,2.60263 -0.31574,1.54503 0.16419,3.23215 0.68837,2.41989 2.24236,3.41464 1.57588,1.00694 3.46749,0.46885 1.1077,-0.31511 1.78511,-1.042 0.6993,-0.7147 0.94642,-1.85339 0.25196,-1.12165 0.28038,-4.64805 0.028,-3.13945 0.54804,-4.61367 0.52009,-1.47423 1.65542,-2.53401 1.15237,-1.06463 2.83948,-1.54456 3.0334,-0.86289 5.51658,0.54909 2.48318,1.41199 3.42848,4.73509 0.6496,2.28357 0.23117,4.24465 -0.41358,1.97812 -1.83407,3.39533 -1.41564,1.43425 -3.67982,2.15201 l -0.98028,-2.53949 q 2.37877,-0.89772 3.1959,-2.49328 0.82199,-1.57853 0.17724,-3.84505 -0.65444,-2.30061 -2.03816,-3.21485 -1.36668,-0.91909 -3.00267,-0.45371 -1.5167,0.43145 -2.09965,1.55515 -0.58296,1.1237 -0.55275,4.46764 0.0279,3.27093 -0.2366,4.67244 -0.42108,2.14604 -1.71743,3.54636 -1.2793,1.39547 -3.44358,2.01113 -2.14723,0.61081 -4.20557,0.10952 -2.04129,-0.50613 -3.456,-1.98259 -1.40986,-1.45942 -2.10309,-3.89636 -1.08104,-3.80026 0.55778,-6.71638 1.64367,-2.89908 5.52194,-4.09441 z m 9.80113,19.06417 q 6.51489,-1.30396 10.58062,0.86367 4.0831,2.16415 4.9385,6.43793 0.55288,2.76231 -0.55518,5.35114 -1.10805,2.58882 -3.83195,4.50725 -2.70305,1.93234 -6.82046,2.75644 -5.66362,1.13358 -9.73973,-0.7248 -4.4931,-2.04596 -5.41109,-6.63244 -0.92494,-4.62124 2.5423,-8.24239 3.13719,-3.28406 8.29699,-4.3168 z m 0.51814,2.85962 q -4.7081,0.94233 -6.90026,3.5313 -2.17132,2.60288 -1.57672,5.57367 0.60852,3.04029 3.64217,4.56525 3.03712,1.54233 8.12742,0.5235 3.28351,-0.6572 5.65999,-2.23506 1.8171,-1.21294 2.66813,-3.09983 0.87188,-1.873 0.48243,-3.81878 -0.6259,-3.12715 -3.6387,-4.63822 -3.00932,-1.49369 -8.46446,-0.40183 z m 2.3382,37.12827 -0.53738,2.91567 q -4.45506,-0.43102 -6.87256,-2.52407 -2.39787,-2.07747 -2.78388,-5.42162 -0.33928,-2.93932 0.84462,-5.19838 1.20353,-2.24348 4.21726,-3.94683 3.01577,-1.68575 7.32795,-2.1835 4.25939,-0.49165 7.35109,0.48912 3.11133,0.99635 4.86947,3.09416 1.77575,2.09578 2.09878,4.8943 0.3535,3.06253 -1.31103,5.48407 -1.64693,2.41951 -5.24151,3.72619 l -1.10897,-2.65429 q 5.22331,-2.02974 4.73369,-6.27152 -0.2438,-2.1121 -1.51383,-3.535 -1.25243,-1.42494 -3.6482,-2.09367 -2.39375,-0.65113 -5.8963,-0.24683 -5.29783,0.61152 -7.74019,2.78397 -2.42476,2.17043 -2.0672,5.26816 0.26411,2.2881 2.07436,3.75566 1.82987,1.48313 5.20383,1.66441 z m -8.59267,7.9242 25.92753,-1.55362 0.16851,2.81206 -25.92754,1.55362 z m 0.47563,5.39224 26.03709,7.98275 0.0236,3.02963 -25.90528,8.91934 -0.0251,-3.22451 7.84704,-2.54173 -0.0693,-8.89398 -7.88463,-2.27732 z m 10.71363,6.06466 0.0562,7.21085 7.17587,-2.27073 q 3.30508,-1.05342 5.37425,-1.54795 -2.50128,-0.38801 -4.96976,-1.11293 z m -10.74084,15.94181 25.92797,1.5464 -0.16772,2.81211 -22.86826,-1.36392 -0.62447,10.47023 -3.05971,-0.18249 z m -1.25214,17.2101 25.82956,2.7358 -0.29672,2.80143 -25.82956,-2.73579 z m 7.60617,8.07153 -0.13708,2.6692 q -2.15064,-0.12645 -3.45728,0.41941 -1.29193,0.56614 -2.229,1.83449 -0.93707,1.26836 -1.21233,3.00067 -0.3948,2.48474 0.5957,4.04143 1.00522,1.57698 2.94751,1.8856 1.13738,0.18072 2.05792,-0.19327 0.93525,-0.35371 1.63896,-1.28241 0.70092,-0.9112 2.21186,-4.09764 1.34756,-2.83566 2.44015,-3.95373 1.09259,-1.11807 2.56866,-1.60113 1.49356,-0.48027 3.22587,-0.20502 3.11467,0.4949 4.77222,2.82136 1.65754,2.32647 1.11538,5.7386 -0.37257,2.34475 -1.578,3.9472 -1.20822,1.61995 -3.09345,2.30709 -1.88801,0.70464 -4.24388,0.40207 l 0.18042,-2.71614 q 2.53559,0.18761 3.94871,-0.9154 1.41033,-1.08552 1.78012,-3.41277 0.37534,-2.36225 -0.49464,-3.77421 -0.85248,-1.40919 -2.5323,-1.6761 -1.55733,-0.24745 -2.55932,0.52621 -1.00198,0.77367 -2.38291,3.81931 -1.35231,2.97842 -2.18243,4.1382 -1.28573,1.76909 -3.05125,2.49319 -1.74803,0.72689 -3.97029,0.37378 -2.20477,-0.35032 -3.86053,-1.67187 -1.63826,-1.31876 -2.29957,-3.25371 -0.66408,-1.91744 -0.26649,-4.41968 0.62001,-3.90207 3.33455,-5.85676 2.71175,-1.93718 6.73272,-1.38797 z m -11.57365,19.14247 25.22835,6.1791 -1.00737,4.11294 -19.06417,0.52945 -3.9746,0.0663 q 1.30541,0.7028 3.77435,2.09189 l 16.33925,9.25542 -0.902,3.68272 -25.22835,-6.1791 0.64489,-2.63297 21.1154,5.17173 -19.64017,-11.19487 0.60273,-2.46089 22.9436,-0.72847 -21.4768,-5.26025 z m 6.07655,27.44147 q 6.28786,2.1464 8.71373,6.06353 2.44265,3.92285 1.03461,8.04768 -0.91007,2.66606 -3.16897,4.34748 -2.25889,1.68142 -5.57793,1.97128 -3.30799,0.31235 -7.28192,-1.04418 -5.46624,-1.86593 -8.05649,-5.52091 -2.85652,-4.02668 -1.34545,-8.45334 1.52251,-4.46018 6.33985,-5.84863 4.36258,-1.26286 9.34257,0.43709 z m -0.989,2.73272 q -4.54402,-1.55113 -7.74029,-0.41435 -3.18522,1.15928 -4.16398,4.02655 -1.00166,2.93433 0.85486,5.77719 1.85078,2.85964 6.7637,4.53669 3.16908,1.08178 6.0166,0.9118 2.18053,-0.13558 3.86448,-1.33929 1.695,-1.18122 2.33605,-3.05919 1.03028,-3.01817 -0.81519,-5.83855 -1.85119,-2.8036 -7.11623,-4.60085 z"
       id="text753"
       transform="translate(-33.866682)"
       aria-label="SOCIALISMO" />
  </g>
</svg>
